# xmcd CD database file
#
# Track frame offsets:
#	150
#	22997
#	42231
#	61998
#	85272
#	117536
#	147440
#	174248
#	208922
#	231242
#	250247
#	272823
#	296087
#	329002
#
# Disc length: 4687 seconds
#
# Revision: 3
# Processed by: cddbd v1.4PL0 Copyright (c) Steve Scherf et al.
# Submitted via: jetAudio 5
#
DISCID=d8124d0e
DTITLE=Eagles - The Eagle Has Landed Vol. II (Acoustic)
DYEAR=1900
DGENRE=
TTITLE0=New Kid In Town
TTITLE1=Victim Of Love
TTITLE2=Ordinary Average Guy
TTITLE3=The Boys Of Summer
TTITLE4=You Belong To The City
TTITLE5=Lyin' Eyes
TTITLE6=Dirty Laundry
TTITLE7=Life's Been Good
TTITLE8=All She Wants To Do Is Dance
TTITLE9=One Of These Nights
TTITLE10=Smuggler's Blues
TTITLE11=Heartache Tonight
TTITLE12=Rocky Mountain Way
TTITLE13=Already Gone
EXTD=
EXTT0=
EXTT1=
EXTT2=
EXTT3=
EXTT4=
EXTT5=
EXTT6=
EXTT7=
EXTT8=
EXTT9=
EXTT10=
EXTT11=
EXTT12=
EXTT13=
PLAYORDER=
